<?xml version="1.0" encoding="utf-8"?>
<!-- Generator: Adobe Illustrator 17.0.0, SVG Export Plug-In . SVG Version: 6.00 Build 0)  -->
<!DOCTYPE svg PUBLIC "-//W3C//DTD SVG 1.1//EN" "http://www.w3.org/Graphics/SVG/1.1/DTD/svg11.dtd">
<svg version="1.1" id="Layer_1" xmlns="http://www.w3.org/2000/svg" xmlns:xlink="http://www.w3.org/1999/xlink" x="0px" y="0px"
	 width="227.504px" height="60px" viewBox="0 0 227.504 60" enable-background="new 0 0 227.504 60" xml:space="preserve">
<g>
	<path fill="#FFFFFF" d="M27.255,53.77c-2.931,3.985-7.1,6.23-12.001,6.23C6.413,60,0,52.534,0,44.151
		c0-8.383,6.413-15.804,15.254-15.804c4.169,0,7.787,1.512,10.398,4.352c0.275,0.275,0.412,0.595,0.412,0.962
		c0,0.321-0.137,0.687-0.366,0.916c-0.229,0.275-0.595,0.412-0.916,0.412c-0.321,0-0.641-0.137-0.916-0.366
		c-2.428-2.016-4.901-3.573-8.611-3.573c-7.421,0-12.23,6.275-12.23,13.101c0,6.825,4.809,13.146,12.23,13.146
		c4.764,0,7.512-2.244,9.986-5.268c0.275-0.321,0.641-0.458,1.007-0.458c0.321,0,0.641,0.091,0.87,0.321
		c0.321,0.275,0.458,0.596,0.458,0.963C27.575,53.175,27.484,53.495,27.255,53.77z"/>
	<path fill="#FFFFFF" d="M48.371,59.771c-0.779,0-1.374-0.595-1.374-1.374v-2.336c-1.374,2.016-4.398,3.893-7.833,3.893
		c-5.634,0-10.398-4.671-10.398-10.489c0-5.817,4.672-10.49,10.49-10.49c5.817,0,10.49,4.673,10.49,10.49c0,0,0,0,0,8.932
		C49.745,59.175,49.149,59.771,48.371,59.771z M39.255,41.403c-4.443,0-7.787,3.664-7.787,8.062c0,4.397,3.344,8.061,7.787,8.061
		c4.443,0,7.742-3.664,7.742-8.061C46.997,45.067,43.698,41.403,39.255,41.403z"/>
	<path fill="#FFFFFF" d="M62.581,41.403c-4.031,0-7.741,2.794-7.741,7.008v9.986c0,0.733-0.641,1.374-1.374,1.374
		c-0.733,0-1.328-0.595-1.328-1.374V40.533c0-0.78,0.549-1.375,1.328-1.375c0.733,0,1.374,0.595,1.374,1.375
		c0,0.687,0,2.335,0,2.335c1.603-2.519,4.352-3.894,7.741-3.894c0.687,0,1.191,0.55,1.191,1.237
		C63.772,40.899,63.268,41.403,62.581,41.403z"/>
	<path fill="#FFFFFF" d="M81.922,50.198c0,0,0.046,0-16.353,0c0.137,4.122,3.436,7.42,7.695,7.42c3.023,0,5.085-1.328,6.78-3.206
		c0.275-0.321,0.549-0.458,0.87-0.458c0.229,0,0.504,0.092,0.733,0.275c0.275,0.229,0.412,0.55,0.412,0.87
		c0,0.229-0.091,0.504-0.275,0.733c-1.557,2.107-4.81,4.122-8.612,4.122c-5.817,0-10.444-4.626-10.444-10.489
		c0-5.864,4.397-10.49,10.215-10.49c5.726,0,10.032,4.673,10.032,10.261C82.976,49.831,82.563,50.198,81.922,50.198z M72.944,41.311
		c-4.031,0-6.963,2.931-7.375,6.825c3.252,0,14.658,0,14.658,0C79.815,44.288,76.975,41.311,72.944,41.311z"/>
	<g>
		<path fill="#FFFFFF" d="M111.768,54.136C108.973,57.709,104.347,60,99.721,60c-8.795,0-15.482-7.238-15.482-15.849
			c0-8.612,6.687-15.804,15.482-15.804c3.801,0,7.513,1.329,10.26,3.985c0.504,0.504,0.779,1.099,0.779,1.695
			c0,0.504-0.183,1.054-0.55,1.466c-0.413,0.504-1.008,0.779-1.604,0.779c-0.504,0-1.053-0.183-1.511-0.55
			c-2.199-1.878-4.26-2.84-7.375-2.84c-6.413,0-10.536,5.222-10.536,11.269c0,6.046,4.123,11.36,10.536,11.36
			c4.718,0,7.145-2.473,8.795-4.443c0.412-0.458,0.962-0.687,1.558-0.687c0.55,0,1.145,0.184,1.557,0.596
			c0.458,0.412,0.687,0.962,0.687,1.557C112.317,53.083,112.134,53.678,111.768,54.136z"/>
		<path fill="#FFFFFF" d="M116.325,59.771c-1.237,0-2.244-0.962-2.244-2.199V30.729c0-1.236,1.008-2.245,2.244-2.245
			c1.237,0,2.199,1.008,2.199,2.245v26.842C118.524,58.809,117.562,59.771,116.325,59.771z"/>
		<path fill="#FFFFFF" d="M130.891,59.954c-5.817,0-10.489-4.671-10.489-10.489c0-5.817,4.672-10.49,10.489-10.49
			c5.817,0,10.49,4.673,10.49,10.49C141.381,55.282,136.708,59.954,130.891,59.954z M130.891,42.96
			c-3.665,0-6.047,2.932-6.047,6.505c0,3.573,2.382,6.504,6.047,6.504c3.665,0,6.047-2.932,6.047-6.504
			C136.937,45.891,134.555,42.96,130.891,42.96z"/>
		<path fill="#FFFFFF" d="M153.26,59.954c-5.359,0-9.665-4.259-9.665-9.573c0-2.748,0-8.978,0-8.978
			c0-1.237,1.008-2.245,2.244-2.245c1.237,0,2.245,1.008,2.245,2.245v9.436c0,2.886,2.153,5.131,5.176,5.131
			c3.023,0,5.177-2.245,5.177-5.131v-9.436c0-1.237,1.007-2.245,2.245-2.245c1.236,0,2.244,1.008,2.244,2.245v8.978
			C162.926,55.694,158.62,59.954,153.26,59.954z"/>
		<path fill="#FFFFFF" d="M183.71,59.771c-1.237,0-2.245-1.007-2.245-2.245v-1.053c-1.282,2.199-3.71,3.481-6.55,3.481
			c-5.817,0-9.94-4.488-9.94-10.489s3.985-10.49,9.94-10.49c2.932,0,5.405,1.42,6.55,3.527V30.684c0-1.237,1.008-2.199,2.245-2.199
			c1.237,0,2.244,0.962,2.244,2.199v26.842C185.955,58.763,184.948,59.771,183.71,59.771z M175.465,42.96c-3.664,0-6,2.932-6,6.505
			c0,3.573,2.336,6.504,6,6.504c3.665,0,6.001-2.794,6.001-6.504C181.466,45.754,179.13,42.96,175.465,42.96z"/>
	</g>
	<g>
		<path fill="#FFFFFF" d="M224.37,20.59c-2.779-1.907-6.419-1.606-8.842,0.518l-8.326-6.162c2.152-4.569,0.742-10.151-3.556-13.104
			c-4.776-3.278-11.303-2.066-14.582,2.709c-3.278,4.776-2.066,11.303,2.708,14.583c4.336,2.976,10.113,2.251,13.595-1.479
			l8.252,6.107c-0.696,1.664-0.725,3.496-0.156,5.141l-9.158,6.248c-0.247-0.225-0.51-0.436-0.792-0.63
			c-3.329-2.285-7.878-1.44-10.164,1.888c-2.285,3.328-1.44,7.877,1.888,10.165c3.329,2.284,7.877,1.439,10.163-1.889
			c1.545-2.251,1.657-5.06,0.539-7.351l8.888-6.064c0.393,0.454,0.851,0.866,1.369,1.221c3.287,2.258,7.78,1.423,10.038-1.864
			C228.492,27.34,227.657,22.848,224.37,20.59z M217.431,30.696c-0.289-0.199-0.55-0.423-0.783-0.666
			c-0.321-0.335-0.585-0.708-0.798-1.105c-0.224-0.417-0.384-0.861-0.483-1.318c-0.176-0.814-0.154-1.669,0.087-2.487
			c0.146-0.497,0.368-0.98,0.677-1.431c0.016-0.023,0.034-0.042,0.05-0.065c0.331-0.464,0.728-0.854,1.167-1.169
			c1.676-1.203,3.988-1.3,5.79-0.068c2.291,1.58,2.873,4.71,1.302,7.007C222.859,31.685,219.729,32.267,217.431,30.696z
			 M203.661,14.576c-0.284,0.411-0.601,0.783-0.947,1.116c-2.42,2.326-6.212,2.717-9.091,0.748
			c-3.282-2.262-4.114-6.747-1.865-10.037c2.263-3.282,6.747-4.115,10.038-1.865c2.765,1.906,3.791,5.389,2.7,8.407
			c-0.185,0.512-0.432,1.01-0.741,1.484C203.724,14.478,203.694,14.527,203.661,14.576z M196.317,45.002
			c-2.457-1.694-3.08-5.05-1.395-7.512c1.693-2.457,5.05-3.081,7.512-1.396c0.081,0.056,0.155,0.118,0.231,0.178
			c0.375,0.289,0.706,0.616,0.985,0.976c0.282,0.366,0.51,0.764,0.687,1.18c0.7,1.643,0.575,3.594-0.508,5.178
			C202.136,46.062,198.78,46.686,196.317,45.002z"/>
	</g>
</g>
</svg>
